<?xml version="1.0" standalone="no"?>
<!DOCTYPE svg PUBLIC "-//W3C//DTD SVG 20010904//EN"
 "http://www.w3.org/TR/2001/REC-SVG-20010904/DTD/svg10.dtd">
<svg version="1.0" xmlns="http://www.w3.org/2000/svg"
 width="227.000000pt" height="227.000000pt" viewBox="0 0 227.000000 227.000000"
 preserveAspectRatio="xMidYMid meet">
<metadata>
Created by potrace 1.11, written by Peter Selinger 2001-2013
</metadata>
<g transform="translate(0.000000,227.000000) scale(0.100000,-0.100000)"
fill="#000000" stroke="none">
<path d="M152 2100 c-19 -30 -156 -524 -150 -540 7 -20 553 -569 559 -563 3 5
14 40 24 78 24 91 38 118 94 178 50 54 179 157 251 202 25 15 47 29 49 31 4 3
-79 85 -158 155 -67 60 -299 278 -416 391 l-100 97 -68 1 c-64 0 -68 -1 -85
-30z"/>
<path d="M2115 2116 c-45 -29 -270 -172 -286 -181 -9 -5 -129 -82 -266 -169
-136 -88 -257 -164 -268 -170 -11 -7 -67 -42 -124 -80 -57 -37 -120 -77 -140
-88 -141 -79 -327 -242 -365 -322 -38 -79 -261 -926 -249 -945 9 -14 46 -16
265 -19 234 -2 257 -1 278 16 22 18 56 130 171 569 21 84 43 161 47 172 7 19
174 141 192 141 5 0 10 4 12 8 2 5 44 35 93 68 50 33 206 137 347 232 142 95
259 171 260 170 2 -2 15 8 30 22 21 21 37 66 88 255 70 256 78 299 60 320 -16
19 -117 19 -145 1z"/>
</g>
</svg>
